<svg xmlns="http://www.w3.org/2000/svg" xmlns:xlink="http://www.w3.org/1999/xlink" width="48" zoomAndPan="magnify" viewBox="0 0 36 36.000001" height="48" preserveAspectRatio="xMidYMid meet" version="1.0"><defs><g/><clipPath id="f7ad795178"><path d="M 0.5625 0.0859375 L 35.507812 0.0859375 L 35.507812 35.027344 L 0.5625 35.027344 Z M 0.5625 0.0859375 " clip-rule="nonzero"/></clipPath><clipPath id="5828f9e834"><path d="M 35.507812 17.554688 C 35.507812 27.203125 27.683594 35.027344 18.035156 35.027344 C 8.386719 35.027344 0.5625 27.203125 0.5625 17.554688 C 0.5625 7.90625 8.386719 0.0859375 18.035156 0.0859375 C 27.683594 0.0859375 35.507812 7.90625 35.507812 17.554688 Z M 35.507812 17.554688 " clip-rule="nonzero"/></clipPath><clipPath id="dac72832d5"><path d="M 0.5625 0.0859375 L 35.507812 0.0859375 L 35.507812 35.027344 L 0.5625 35.027344 Z M 0.5625 0.0859375 " clip-rule="nonzero"/></clipPath><clipPath id="4b9fb9732c"><path d="M 35.507812 17.554688 C 35.507812 27.203125 27.683594 35.027344 18.035156 35.027344 C 8.386719 35.027344 0.5625 27.203125 0.5625 17.554688 C 0.5625 7.90625 8.386719 0.0859375 18.035156 0.0859375 C 27.683594 0.0859375 35.507812 7.90625 35.507812 17.554688 Z M 35.507812 17.554688 " clip-rule="nonzero"/></clipPath><clipPath id="e31df05a0d"><rect x="0" width="36" y="0" height="36"/></clipPath><clipPath id="4dcb167bad"><rect x="0" width="34" y="0" height="25"/></clipPath></defs><g clip-path="url(#f7ad795178)"><g clip-path="url(#5828f9e834)"><g transform="matrix(1, 0, 0, 1, 0.000000000000000056, 0.000000000000010582)"><g clip-path="url(#e31df05a0d)"><g clip-path="url(#dac72832d5)"><g clip-path="url(#4b9fb9732c)"><path fill="#ebe8e5" d="M 35.507812 0.0859375 L 35.507812 35.027344 L 0.5625 35.027344 L 0.5625 0.0859375 Z M 35.507812 0.0859375 " fill-opacity="1" fill-rule="nonzero"/></g></g></g></g></g></g><g transform="matrix(1, 0, 0, 1, 1, 5)"><g clip-path="url(#4dcb167bad)"><g fill="#545454" fill-opacity="1"><g transform="translate(0.642113, 19.066716)"><g><path d="M 0.875 -7.296875 C 0.875 -9.910156 1.484375 -11.851562 2.703125 -13.125 C 3.921875 -14.40625 5.894531 -15.046875 8.625 -15.046875 C 11.34375 -15.046875 13.3125 -14.40625 14.53125 -13.125 C 15.75 -11.851562 16.359375 -9.910156 16.359375 -7.296875 C 16.359375 -4.691406 15.75 -2.75 14.53125 -1.46875 C 13.3125 -0.195312 11.34375 0.4375 8.625 0.4375 C 5.957031 0.4375 4 -0.1875 2.75 -1.4375 C 1.5 -2.6875 0.875 -4.640625 0.875 -7.296875 Z M 7.15625 -9.546875 L 7.15625 -3.828125 L 8.0625 -3.828125 C 8.769531 -3.828125 9.28125 -3.898438 9.59375 -4.046875 C 9.914062 -4.191406 10.078125 -4.53125 10.078125 -5.0625 L 10.078125 -10.78125 L 9.171875 -10.78125 C 8.460938 -10.78125 7.945312 -10.707031 7.625 -10.5625 C 7.3125 -10.414062 7.15625 -10.078125 7.15625 -9.546875 Z M 7.15625 -9.546875 "/></g></g></g><g fill="#545454" fill-opacity="1"><g transform="translate(17.873561, 19.066716)"><g><path d="M 0.734375 0 L 14.75 0 L 14.75 -4.375 L 9.03125 -4.375 L 8.9375 -4.546875 L 14.578125 -11.6875 L 14.578125 -14.609375 L 1.3125 -14.609375 L 1.75 -10.21875 L 6.375 -10.21875 L 6.453125 -10.046875 L 0.734375 -2.921875 Z M 0.734375 0 "/></g></g></g></g></g></svg>